<!-- TimeDeck wordmark lockup with icon -->
<svg xmlns="http://www.w3.org/2000/svg" viewBox="0 0 680 200" role="img" aria-labelledby="t d">
  <title id="t">TimeDeck — TapeDeck Time Machine</title>
  <desc id="d">Cassette+clock icon with retro wordmark and tagline</desc>
  <defs>
    <linearGradient id="g" x1="0" y1="0" x2="1" y2="1">
      <stop offset="0" stop-color="#FF3EA5"></stop>
      <stop offset="1" stop-color="#00D6FF"></stop>
    </linearGradient>
  </defs>

  <!-- icon (same style as favicon, simplified) -->
  <g transform="translate(10,20) scale(0.95)">
    <rect x="12" y="20" width="168" height="128" rx="18" fill="#fff" stroke="#e7e3f2" stroke-width="3"></rect>
    <rect x="20" y="36" width="152" height="22" rx="6" fill="url(#g)"></rect>
    <rect x="36" y="70" width="120" height="40" rx="8" fill="#f9f7ff" stroke="#e7e3f2" stroke-width="2"></rect>
    <circle cx="66" cy="90" r="16" fill="#ffffff" stroke="#13121A" stroke-width="2"></circle>
    <circle cx="66" cy="90" r="14" fill="none" stroke="#FF3EA5" stroke-width="2" stroke-dasharray="2 6"></circle>
    <line x1="66" y1="90" x2="66" y2="78" stroke="#13121A" stroke-width="2" stroke-linecap="round"></line>
    <line x1="66" y1="90" x2="78" y2="90" stroke="#13121A" stroke-width="2" stroke-linecap="round"></line>
    <circle cx="126" cy="90" r="16" fill="#ffffff" stroke="#13121A" stroke-width="2"></circle>
    <circle cx="126" cy="90" r="14" fill="none" stroke="#00D6FF" stroke-width="2" stroke-dasharray="2 6"></circle>
    <line x1="126" y1="90" x2="126" y2="80" stroke="#13121A" stroke-width="2" stroke-linecap="round"></line>
    <line x1="126" y1="90" x2="118" y2="100" stroke="#13121A" stroke-width="2" stroke-linecap="round"></line>
    <rect x="28" y="116" width="136" height="18" rx="6" fill="#ffe94a" opacity="0.9"></rect>
  </g>

  <!-- wordmark -->
  <g transform="translate(210,70)">
    <text x="0" y="0" font-family="Archivo, system-ui, sans-serif" font-weight="700" font-size="48" fill="#13121A">
      TimeDeck
    </text>
    <text x="0" y="36" font-family="Space Grotesk, system-ui, sans-serif" font-weight="600" font-size="16" fill="#6b6580">
      TapeDeck Time Machine · Rewind the radio you grew up with.
    </text>
    <!-- accent underline -->
    <rect x="0" y="10" width="150" height="6" rx="3" fill="url(#g)" opacity="0.85"></rect>
  </g>
</svg>
